<svg xmlns="http://www.w3.org/2000/svg" viewBox="0 0 900 520" font-family="Inter, system-ui, -apple-system, sans-serif">
  <defs>
    <marker id="arrow" markerWidth="10" markerHeight="7" refX="9" refY="3.5" orient="auto">
      <polygon points="0 0, 10 3.5, 0 7" fill="#6366f1"/>
    </marker>
    <marker id="arrow-green" markerWidth="10" markerHeight="7" refX="9" refY="3.5" orient="auto">
      <polygon points="0 0, 10 3.5, 0 7" fill="#22c55e"/>
    </marker>
    <marker id="arrow-amber" markerWidth="10" markerHeight="7" refX="9" refY="3.5" orient="auto">
      <polygon points="0 0, 10 3.5, 0 7" fill="#f59e0b"/>
    </marker>
    <filter id="shadow">
      <feDropShadow dx="0" dy="2" stdDeviation="3" flood-opacity="0.1"/>
    </filter>
  </defs>

  <!-- Background -->
  <rect width="900" height="520" rx="12" fill="#fafbfc"/>

  <!-- Title -->
  <text x="450" y="35" text-anchor="middle" font-size="18" font-weight="700" fill="#1e293b">Reachy RX - System Architecture</text>

  <!-- Google Sheet (external) -->
  <rect x="30" y="60" width="160" height="56" rx="10" fill="#e0f2fe" stroke="#38bdf8" stroke-width="1.5" filter="url(#shadow)"/>
  <text x="110" y="84" text-anchor="middle" font-size="11" font-weight="600" fill="#0369a1">Google Sheet</text>
  <text x="110" y="100" text-anchor="middle" font-size="9" fill="#64748b">Medication Schedule</text>

  <!-- MedicationReminder -->
  <rect x="30" y="145" width="160" height="70" rx="10" fill="#fff" stroke="#94a3b8" stroke-width="1.5" filter="url(#shadow)"/>
  <text x="110" y="168" text-anchor="middle" font-size="11" font-weight="600" fill="#1e293b">MedicationReminder</text>
  <text x="110" y="183" text-anchor="middle" font-size="9" fill="#64748b">Fetch schedule (gviz API)</text>
  <text x="110" y="196" text-anchor="middle" font-size="9" fill="#64748b">Track due meds + nag count</text>
  <text x="110" y="209" text-anchor="middle" font-size="9" fill="#64748b">Persist taken log (JSON)</text>

  <!-- Arrow: Sheet → Reminder -->
  <line x1="110" y1="116" x2="110" y2="143" stroke="#6366f1" stroke-width="1.5" marker-end="url(#arrow)"/>

  <!-- Camera -->
  <rect x="30" y="260" width="160" height="50" rx="10" fill="#fef3c7" stroke="#f59e0b" stroke-width="1.5" filter="url(#shadow)"/>
  <text x="110" y="282" text-anchor="middle" font-size="11" font-weight="600" fill="#92400e">Camera</text>
  <text x="110" y="298" text-anchor="middle" font-size="9" fill="#64748b">Reachy USB / MacBook fallback</text>

  <!-- Main Loop (center) -->
  <rect x="270" y="120" width="240" height="210" rx="14" fill="#f0f9ff" stroke="#6366f1" stroke-width="2" filter="url(#shadow)"/>
  <text x="390" y="148" text-anchor="middle" font-size="13" font-weight="700" fill="#4338ca">Vision Loop</text>
  <text x="390" y="166" text-anchor="middle" font-size="9" fill="#64748b">Jetson Nano Super - main.py</text>
  <line x1="290" y1="178" x2="490" y2="178" stroke="#c7d2fe" stroke-width="1"/>
  <text x="300" y="198" font-size="10" fill="#334155">1. Capture frame</text>
  <text x="300" y="216" font-size="10" fill="#334155">2. Build context (meds + people)</text>
  <text x="300" y="234" font-size="10" fill="#334155">3. Inject context into VLM prompt</text>
  <text x="300" y="252" font-size="10" fill="#334155">4. Send frame + prompt to VLM</text>
  <text x="300" y="270" font-size="10" fill="#334155">5. Parse response into tool calls</text>
  <text x="300" y="288" font-size="10" fill="#334155">6. Execute actions sequentially</text>
  <text x="300" y="306" font-size="10" fill="#334155">7. Wait for TTS, then next frame</text>

  <!-- Arrow: Reminder → Main Loop -->
  <line x1="190" y1="180" x2="268" y2="180" stroke="#6366f1" stroke-width="1.5" marker-end="url(#arrow)"/>
  <text x="229" y="173" text-anchor="middle" font-size="8" fill="#6366f1">context</text>

  <!-- Arrow: Camera → Main Loop -->
  <line x1="190" y1="285" x2="268" y2="260" stroke="#f59e0b" stroke-width="1.5" marker-end="url(#arrow-amber)"/>
  <text x="229" y="265" text-anchor="middle" font-size="8" fill="#f59e0b">frame</text>

  <!-- VLM Cloud (NVIDIA) -->
  <rect x="600" y="80" width="260" height="90" rx="12" fill="#f0fdf4" stroke="#22c55e" stroke-width="1.5" filter="url(#shadow)"/>
  <text x="730" y="104" text-anchor="middle" font-size="11" font-weight="700" fill="#166534">NVIDIA Brev VLM</text>
  <text x="730" y="120" text-anchor="middle" font-size="9" fill="#64748b">Nemotron Nano VL 12B V2 (FP8)</text>
  <text x="730" y="135" text-anchor="middle" font-size="9" fill="#64748b">vLLM · OpenAI-compat API</text>
  <text x="730" y="150" text-anchor="middle" font-size="9" fill="#64748b">Image + text → text + tool calls</text>
  <text x="730" y="165" text-anchor="middle" font-size="9" fill="#475569">L40S 48 GiB · Cloudflare Tunnel</text>

  <!-- Arrow: Main → VLM -->
  <line x1="510" y1="165" x2="598" y2="135" stroke="#22c55e" stroke-width="1.5" marker-end="url(#arrow-green)"/>
  <text x="554" y="140" text-anchor="middle" font-size="8" fill="#22c55e">frame+prompt</text>

  <!-- Arrow: VLM → Main -->
  <line x1="598" y1="155" x2="510" y2="195" stroke="#22c55e" stroke-width="1.5" marker-end="url(#arrow-green)"/>
  <text x="554" y="184" text-anchor="middle" font-size="8" fill="#22c55e">response</text>

  <!-- MiniMax TTS -->
  <rect x="600" y="200" width="260" height="70" rx="12" fill="#fdf2f8" stroke="#ec4899" stroke-width="1.5" filter="url(#shadow)"/>
  <text x="730" y="224" text-anchor="middle" font-size="11" font-weight="700" fill="#9d174d">MiniMax TTS</text>
  <text x="730" y="240" text-anchor="middle" font-size="9" fill="#64748b">speech-2.6-turbo · English_Upbeat_Woman</text>
  <text x="730" y="256" text-anchor="middle" font-size="9" fill="#64748b">Text → WAV → resample 16kHz → speaker</text>

  <!-- Arrow: Main → TTS -->
  <line x1="510" y1="240" x2="598" y2="235" stroke="#ec4899" stroke-width="1.5" stroke-dasharray="5,3" marker-end="url(#arrow)"/>
  <text x="554" y="230" text-anchor="middle" font-size="8" fill="#ec4899">speak()</text>

  <!-- Reachy Hardware -->
  <rect x="600" y="310" width="260" height="90" rx="12" fill="#fff7ed" stroke="#f97316" stroke-width="1.5" filter="url(#shadow)"/>
  <text x="730" y="334" text-anchor="middle" font-size="11" font-weight="700" fill="#9a3412">Reachy Mini Hardware</text>
  <text x="730" y="352" text-anchor="middle" font-size="9" fill="#64748b">Head: pitch, yaw, roll via servo motors</text>
  <text x="730" y="367" text-anchor="middle" font-size="9" fill="#64748b">Antennas: expressive positioning</text>
  <text x="730" y="382" text-anchor="middle" font-size="9" fill="#64748b">Speaker: 16kHz PCM audio output</text>

  <!-- Arrow: Main → Reachy -->
  <line x1="510" y1="300" x2="598" y2="340" stroke="#f97316" stroke-width="1.5" marker-end="url(#arrow-amber)"/>
  <text x="554" y="315" text-anchor="middle" font-size="8" fill="#f97316">gestures + audio</text>

  <!-- Sound Effects -->
  <rect x="270" y="370" width="240" height="60" rx="10" fill="#faf5ff" stroke="#a855f7" stroke-width="1.5" filter="url(#shadow)"/>
  <text x="390" y="394" text-anchor="middle" font-size="11" font-weight="600" fill="#7e22ce">Synthesized Sound Effects</text>
  <text x="390" y="410" text-anchor="middle" font-size="9" fill="#64748b">Chirps (gentle→urgent) · Celebration arpeggio</text>
  <text x="390" y="424" text-anchor="middle" font-size="9" fill="#64748b">Pure numpy @ 16kHz - no audio files</text>

  <!-- Arrow: Sounds → Reachy -->
  <line x1="510" y1="400" x2="598" y2="380" stroke="#a855f7" stroke-width="1.5" stroke-dasharray="5,3" marker-end="url(#arrow)"/>

  <!-- Taken Log -->
  <rect x="30" y="370" width="160" height="50" rx="10" fill="#f5f5f4" stroke="#a8a29e" stroke-width="1.5" filter="url(#shadow)"/>
  <text x="110" y="392" text-anchor="middle" font-size="11" font-weight="600" fill="#57534e">medication_taken.json</text>
  <text x="110" y="408" text-anchor="middle" font-size="9" fill="#64748b">Daily persistence · keyed by date</text>

  <!-- Arrow: Main → Taken Log -->
  <line x1="270" y1="330" x2="190" y2="378" stroke="#94a3b8" stroke-width="1.2" stroke-dasharray="4,3" marker-end="url(#arrow)"/>
  <text x="225" y="348" text-anchor="middle" font-size="8" fill="#94a3b8">mark taken</text>

  <!-- Legend -->
  <rect x="30" y="455" width="840" height="50" rx="8" fill="#f8fafc" stroke="#e2e8f0" stroke-width="1"/>
  <text x="50" y="475" font-size="9" font-weight="600" fill="#64748b">DATA FLOWS:</text>
  <line x1="120" y1="472" x2="160" y2="472" stroke="#6366f1" stroke-width="2"/>
  <text x="168" y="476" font-size="9" fill="#64748b">Context injection</text>
  <line x1="260" y1="472" x2="300" y2="472" stroke="#22c55e" stroke-width="2"/>
  <text x="308" y="476" font-size="9" fill="#64748b">VLM inference</text>
  <line x1="390" y1="472" x2="430" y2="472" stroke="#f59e0b" stroke-width="2"/>
  <text x="438" y="476" font-size="9" fill="#64748b">Frames/Gestures</text>
  <line x1="540" y1="472" x2="580" y2="472" stroke="#ec4899" stroke-width="2" stroke-dasharray="5,3"/>
  <text x="588" y="476" font-size="9" fill="#64748b">Audio</text>
  <line x1="640" y1="472" x2="680" y2="472" stroke="#94a3b8" stroke-width="1.5" stroke-dasharray="4,3"/>
  <text x="688" y="476" font-size="9" fill="#64748b">Persistence</text>

  <text x="50" y="495" font-size="9" font-weight="600" fill="#64748b">EXTERNAL:</text>
  <rect x="112" y="487" width="10" height="10" rx="2" fill="#e0f2fe" stroke="#38bdf8" stroke-width="1"/>
  <text x="130" y="496" font-size="9" fill="#64748b">Google Sheets</text>
  <rect x="212" y="487" width="10" height="10" rx="2" fill="#f0fdf4" stroke="#22c55e" stroke-width="1"/>
  <text x="230" y="496" font-size="9" fill="#64748b">NVIDIA Brev</text>
  <rect x="310" y="487" width="10" height="10" rx="2" fill="#fdf2f8" stroke="#ec4899" stroke-width="1"/>
  <text x="328" y="496" font-size="9" fill="#64748b">MiniMax API</text>
</svg>
